<?xml version="1.0" encoding="utf-8"?>
<!-- Generator: Adobe Illustrator 23.0.2, SVG Export Plug-In . SVG Version: 6.00 Build 0)  -->
<svg version="1.1" id="Ebene_1" xmlns="http://www.w3.org/2000/svg" xmlns:xlink="http://www.w3.org/1999/xlink" x="0px" y="0px"
	 viewBox="0 0 550.4 101.1" style="enable-background:new 0 0 550.4 101.1;" xml:space="preserve">
<style type="text/css">
	.st0{fill:#93C020;}
	.st1{fill:#D3121E;}
</style>
<g>
	<circle class="st0" cx="387.7" cy="21.5" r="6.2"/>
	<circle class="st0" cx="348.4" cy="21.5" r="6.2"/>
	<g>
		<path class="st1" d="M42.4,80.4H27.3l-9.8-19l-4,2.4v16.6H0V30.8h13.5v21.6c0.7-1.3,2-3.5,4.1-6.3L28,30.8h14.7L27,53L42.4,80.4z"
			/>
		<path class="st1" d="M95,80.4H77.4l-18.1-35H59c0.4,5.5,0.6,9.7,0.6,12.6v22.4H47.8V30.8h17.5l18.1,34.5h0.2
			c-0.3-5-0.5-9-0.5-12.1V30.8H95V80.4z"/>
		<path class="st1" d="M136.2,80.4l-2.4-9.3h-16.1l-2.5,9.3h-14.7l16.2-49.8h17.9l16.4,49.8H136.2z M131,60.1l-2.1-8.1
			c-0.5-1.8-1.1-4.2-1.8-7c-0.7-2.9-1.2-4.9-1.4-6.2c-0.2,1.2-0.6,3.1-1.2,5.7c-0.6,2.6-1.9,7.9-4,15.7H131z"/>
		<path class="st1" d="M156.2,80.4V30.8h13.4v38.8h19.1v10.8H156.2z"/>
		<path class="st1" d="M196.7,80.4V30.8h13.4v38.8h19.1v10.8H196.7z"/>
		<path class="st1" d="M250.4,80.4h-13.2V30.8h29.3v10.8h-16.1V51h14.9v10.8h-14.9V80.4z"/>
		<path class="st1" d="M288,62.3v18.1h-13.4V30.8h16.3c13.5,0,20.2,4.9,20.2,14.7c0,5.7-2.8,10.2-8.4,13.3l14.5,21.6H302l-10.5-18.1
			H288z M288,52.3h2.5c4.7,0,7-2.1,7-6.2c0-3.4-2.3-5.1-6.9-5.1H288V52.3z"/>
		<path class="st1" d="M455,65.3c0,3.1-0.8,5.8-2.3,8.2c-1.6,2.4-3.8,4.2-6.8,5.6c-2.9,1.3-6.4,2-10.4,2c-3.3,0-6.1-0.2-8.3-0.7
			c-2.2-0.5-4.6-1.3-7-2.4V66c2.6,1.3,5.2,2.3,8,3.1c2.8,0.7,5.3,1.1,7.6,1.1c2,0,3.5-0.3,4.4-1c0.9-0.7,1.4-1.6,1.4-2.7
			c0-0.7-0.2-1.3-0.6-1.8c-0.4-0.5-1-1-1.8-1.5c-0.8-0.5-3-1.6-6.6-3.2c-3.2-1.5-5.7-2.9-7.3-4.3c-1.6-1.4-2.8-3-3.6-4.8
			c-0.8-1.8-1.2-3.9-1.2-6.3c0-4.6,1.7-8.1,5-10.7c3.3-2.6,7.9-3.8,13.7-3.8c5.1,0,10.4,1.2,15.7,3.6L450.9,44
			c-4.6-2.1-8.6-3.2-12-3.2c-1.7,0-3,0.3-3.8,0.9s-1.2,1.4-1.2,2.3c0,1,0.5,1.8,1.5,2.6s3.7,2.2,8.2,4.2c4.3,1.9,7.2,4,8.9,6.2
			C454.2,59.2,455,62,455,65.3z"/>
		<path class="st1" d="M484.8,41c-3.2,0-5.7,1.3-7.5,3.9s-2.7,6.2-2.7,10.8c0,9.6,3.6,14.3,10.9,14.3c2.2,0,4.3-0.3,6.4-0.9
			c2.1-0.6,4.1-1.3,6.2-2.2v11.3c-4.1,1.8-8.8,2.7-14.1,2.7c-7.5,0-13.2-2.2-17.2-6.5c-4-4.3-6-10.6-6-18.8c0-5.1,1-9.7,2.9-13.5
			c1.9-3.9,4.7-6.9,8.4-9c3.6-2.1,7.9-3.1,12.8-3.1c5.4,0,10.5,1.2,15.4,3.5l-4.1,10.6c-1.8-0.9-3.7-1.6-5.5-2.2
			C488.9,41.3,486.9,41,484.8,41z"/>
		<path class="st1" d="M550.4,80.4h-13.5V60.2h-15.6v20.2h-13.5V30.8h13.5v18.4h15.6V30.8h13.5V80.4z"/>
	</g>
	<path class="st0" d="M410.7,44c-2.1-4.4-5-8.4-8.5-11.9c3.7-3.4,6-8.2,6-13.6c0-10.2-8.3-18.5-18.5-18.5
		c-10.2,0-18.5,8.3-18.5,18.5c0,0,0,0.1,0,0.1c-1-0.1-2.1-0.1-3.1-0.1s-2.1,0-3.1,0.1c0,0,0-0.1,0-0.1c0-10.2-8.3-18.5-18.5-18.5
		s-18.5,8.3-18.5,18.5c0,5.4,2.3,10.2,6,13.6c-3.5,3.5-6.4,7.5-8.5,11.9c-1.9,4.1-1.3,9.1,1.8,12.5c3.9,4.4,8.6,8.1,14,10.9
		c-2.8,1.6-10.2,7.5-10.2,24.2c0,0,14.2,9.2,36.7,9.5v0c0.1,0,0.2,0,0.2,0c0.1,0,0.2,0,0.2,0v0c22.4-0.2,36.7-9.5,36.7-9.5
		c0-16.3-7.1-22.3-10-24.1c5.5-2.9,10.3-6.7,14.2-11.1C412,53.1,412.7,48.1,410.7,44z M334.1,18.5c0-6.8,5.5-12.4,12.4-12.4
		s12.4,5.5,12.4,12.4s-5.5,12.4-12.4,12.4S334.1,25.4,334.1,18.5z M367.4,60.5c-10.7,0-20.2-3.2-26.6-8.2c6.4,1.7,16,2.8,26.6,2.8
		c10.7,0,20.2-1.1,26.6-2.8C387.6,57.3,378,60.5,367.4,60.5z M389.7,30.9c-6.8,0-12.4-5.5-12.4-12.4s5.5-12.4,12.4-12.4
		c6.8,0,12.4,5.5,12.4,12.4S396.5,30.9,389.7,30.9z"/>
</g>
</svg>
